<?xml version="1.0" encoding="UTF-8" standalone="no"?>
<svg
   width="595"
   height="183"
   version="1.1"
   viewBox="0 0 595 183"
   id="svg35"
   sodipodi:docname="logo.svg"
   inkscape:version="1.3 (0e150ed6c4, 2023-07-21)"
   inkscape:export-filename="logo.png"
   inkscape:export-xdpi="200"
   inkscape:export-ydpi="200"
   xmlns:inkscape="http://www.inkscape.org/namespaces/inkscape"
   xmlns:sodipodi="http://sodipodi.sourceforge.net/DTD/sodipodi-0.dtd"
   xmlns="http://www.w3.org/2000/svg"
   xmlns:svg="http://www.w3.org/2000/svg">
  <sodipodi:namedview
     id="namedview35"
     pagecolor="#ffffff"
     bordercolor="#000000"
     borderopacity="0.25"
     inkscape:showpageshadow="2"
     inkscape:pageopacity="0.0"
     inkscape:pagecheckerboard="0"
     inkscape:deskcolor="#d1d1d1"
     inkscape:zoom="1.4142136"
     inkscape:cx="335.52217"
     inkscape:cy="100.05561"
     inkscape:window-width="1920"
     inkscape:window-height="1008"
     inkscape:window-x="0"
     inkscape:window-y="0"
     inkscape:window-maximized="1"
     inkscape:current-layer="svg35" />
  <defs
     id="defs8">
    <clipPath
       clipPathUnits="userSpaceOnUse"
       id="clipPath37">
      <g
         id="g44"
         inkscape:label="Thick"
         transform="translate(-0.020436,346.01696)">
        <path
           d="m 260,-111.2 10.8,-7.56 1.98,2.06 -0.53,19.6 22.3,-17.9 16.8,-0.014 -63.2,76.8 -5.84,1.12 -5.87,4.3 -2.53,-0.281 -18.9,20.7 -1.54,-1.38 64.5,-78.6 -7.38,4.85 -9.82,-11 z"
           id="path37" />
        <path
           d="m 403,-120 -82.8,5.01 -15.4,30 -13.7,4.94 6.05,5.19 3.98,-0.639 -33.5,68 5.96,-3.1 5.3,-12.9 16.9,-11.6 20.4,-40.7 84.9,-28.1 z m -22.1,12.3 -55.8,17 6.98,-13.7 z"
           id="path38" />
        <path
           d="m 372,-93.9 -10.9,28.1 9.08,6.29 23.2,-15.9 -4.65,10.1 10.2,5.36 28.8,-49.7 -3.63,-6.89 1.44,-2.83 -0.211,-3.1 1.33,-2.16 -2.28,-1.38 -22.9,36.7 -24.4,15.9 5.93,-15.7 0.409,-5.96 z"
           id="path39" />
        <path
           d="m 409,-67 26.5,-49.5 1.2,0.418 -0.416,3.87 3.78,0.297 7.32,26.1 15.5,-26.6 13.9,-0.661 -25.1,45.9 -10.5,0.77 -5.69,-21.7 -11.7,18.9 z"
           id="path40" />
        <path
           d="m 465,-68 4.39,-8.44 -2.18,-5.5 19.7,-38.1 2.64,2.6 12.8,-0.613 -9.25,17.7 79.8,-38.5 -0.147,2.05 -4.76,3.11 -6.24,8.39 -20.1,10.3 -2.55,3.18 -33.9,17.1 19.1,10.4 -2.12,3.54 5.97,3.31 0.101,3.14 1.47,1.06 -0.123,4.11 53.7,29.8 3.35,-1.35 6.62,3.78 0.967,3.44 2.35,0.927 -0.175,4.37 -91.3,-49 -0.933,-1.33 -17.1,-10.3 -14.7,26.2 z"
           id="path41" />
        <path
           d="m 163,-115.8 -27.9,39.7 7.31,6.75 46.1,-9.36 4.25,-6.03 1.12,-4.01 -36.6,6.41 5.57,-9.75 30,-2.08 4.98,-8.3 -30.3,1.05 1.8,-4.65 14.3,-0.0549 2.62,-3.13 20.8,0.387 4.4,-5.56 -23.1,0.348 -3.29,-1.58 z"
           id="path42" />
        <path
           d="m 135,-176.01 -0.438,5.81 8.03,14.2 -124,81.4 -4.83,-0.984 -2.93,1.76 22.6,11.2 76.4,-4.98 4.54,-2.15 13.3,0.805 -0.23,1.82 9.77,-8.78 -2.64,-4.83 -5.46,-0.619 -31.5,-27 56.3,2.64 -8.18,-67.9 z m 0.354,40.5 4.05,14.1 -18.5,-2.56 z m -52.5,40 20.4,15.9 -44.6,-1.43 z"
           id="path43" />
        <path
           d="m 270,-109.6 1.81,3.47 -64.5,48.7 -16.5,-11.4 32.1,-39.2 5.77,-1.75 4.32,-5.11 4.43,-0.696 8.73,-10.7 1.26,1.01 -11.1,14.1 -1.54,7.04 -21.4,26.9 37.5,-25.8 9.11,0.604 z"
           id="path44" />
      </g>
    </clipPath>
  </defs>
  <g
     transform="translate(-6.426423,9.1855747)"
     id="g35">
    <g
       fill="#51bcdc"
       id="g16"
       inkscape:label="Blue">
      <path
         d="m 464,101 4.39,-8.44 -2.18,-5.5 19.7,-38.1 2.64,2.6 12.8,-0.613 -9.25,17.7 79.8,-38.5 -0.147,2.05 -4.76,3.11 -6.24,8.39 -20.1,10.3 -2.55,3.18 -33.9,17.1 19.1,10.4 -2.12,3.54 5.97,3.31 0.101,3.14 1.47,1.06 -0.123,4.11 53.7,29.8 3.35,-1.35 6.62,3.78 0.967,3.44 2.35,0.927 -0.175,4.37 -91.3,-49 -0.933,-1.33 -17.1,-10.3 -14.7,26.2 z"
         id="path9" />
      <path
         d="m 406,103 26.5,-49.5 1.2,0.418 -0.416,3.87 3.78,0.297 7.32,26.1 15.5,-26.6 13.9,-0.661 -25.1,45.9 -10.5,0.77 -5.69,-21.7 -11.7,18.9 z"
         id="path10" />
      <path
         d="m 368,83.5 -10.9,28.1 9.08,6.29 23.2,-15.9 -4.65,10.1 10.2,5.36 28.8,-49.7 -3.63,-6.89 1.44,-2.83 -0.211,-3.1 1.33,-2.16 -2.28,-1.38 -22.9,36.7 -24.4,15.9 5.93,-15.7 0.409,-5.96 z"
         id="path11" />
      <path
         d="m 402,57.5 -82.8,5.01 -15.4,30 -13.7,4.94 6.05,5.19 3.98,-0.639 -33.5,68 5.96,-3.1 5.3,-12.9 16.9,-11.6 20.4,-40.7 84.9,-28.1 z m -22.1,12.3 -55.8,17 6.98,-13.7 z"
         id="path12" />
      <path
         d="m 254,65.2 10.8,-7.56 1.98,2.06 -0.53,19.6 22.3,-17.9 16.8,-0.014 -63.2,76.8 -5.84,1.12 -5.87,4.3 -2.53,-0.281 -18.9,20.7 -1.54,-1.38 64.5,-78.6 -7.38,4.85 -9.82,-11 z"
         id="path13" />
      <path
         d="m 268,69.6 1.81,3.47 -64.5,48.7 -16.5,-11.4 32.1,-39.2 5.77,-1.75 4.32,-5.11 4.43,-0.696 8.73,-10.7 1.26,1.01 -11.1,14.1 -1.54,7.04 -21.4,26.9 37.5,-25.8 9.11,0.604 z"
         id="path14" />
      <path
         d="m 161,53.4 -27.9,39.7 7.31,6.75 46.1,-9.36 4.25,-6.03 1.12,-4.01 -36.6,6.41 5.57,-9.75 30,-2.08 4.98,-8.3 -30.3,1.05 1.8,-4.65 14.3,-0.0549 2.62,-3.13 20.8,0.387 4.4,-5.56 -23.1,0.348 -3.29,-1.58 z"
         id="path15" />
      <path
         d="m 135,3.63 -0.438,5.81 8.03,14.2 -124,81.4 -4.83,-0.984 -2.93,1.76 22.6,11.2 76.4,-4.98 4.54,-2.15 13.3,0.805 -0.23,1.82 9.77,-8.78 -2.64,-4.83 -5.46,-0.619 -31.5,-27 56.3,2.64 -8.18,-67.9 z m 0.354,40.5 4.05,14.1 -18.5,-2.56 z m -52.5,40 20.4,15.9 -44.6,-1.43 z"
         id="path16" />
    </g>
    <g
       fill="#feef17"
       id="g24"
       inkscape:label="Yellow">
      <path
         d="m 260,61.8 10.8,-7.56 1.98,2.06 -0.53,19.6 22.3,-17.9 16.8,-0.014 -63.2,76.8 -5.84,1.12 -5.87,4.3 -2.53,-0.281 -18.9,20.7 -1.54,-1.38 64.5,-78.6 -7.38,4.85 -9.82,-11 z"
         id="path17" />
      <path
         d="m 403,53 -82.8,5.01 -15.4,30 -13.7,4.94 6.05,5.19 3.98,-0.639 -33.5,68 5.96,-3.1 5.3,-12.9 16.9,-11.6 20.4,-40.7 84.9,-28.1 z m -22.1,12.3 -55.8,17 6.98,-13.7 z"
         id="path18" />
      <path
         d="m 372,79.1 -10.9,28.1 9.08,6.29 23.2,-15.9 -4.65,10.1 10.2,5.36 28.8,-49.7 -3.63,-6.89 1.44,-2.83 -0.211,-3.1 1.33,-2.16 -2.28,-1.38 -22.9,36.7 -24.4,15.9 5.93,-15.7 0.409,-5.96 z"
         id="path19" />
      <path
         d="m 409,106 26.5,-49.5 1.2,0.418 -0.416,3.87 3.78,0.297 7.32,26.1 15.5,-26.6 13.9,-0.661 -25.1,45.9 -10.5,0.77 -5.69,-21.7 -11.7,18.9 z"
         id="path20" />
      <path
         d="m 465,105 4.39,-8.44 -2.18,-5.5 19.7,-38.1 2.64,2.6 12.8,-0.613 -9.25,17.7 79.8,-38.5 -0.147,2.05 -4.76,3.11 -6.24,8.39 -20.1,10.3 -2.55,3.18 -33.9,17.1 19.1,10.4 -2.12,3.54 5.97,3.31 0.101,3.14 1.47,1.06 -0.123,4.11 53.7,29.8 3.35,-1.35 6.62,3.78 0.967,3.44 2.35,0.927 -0.175,4.37 -91.3,-49 -0.933,-1.33 -17.1,-10.3 -14.7,26.2 z"
         id="path21" />
      <path
         d="m 163,57.2 -27.9,39.7 7.31,6.75 46.1,-9.36 4.25,-6.03 1.12,-4.01 -36.6,6.41 5.57,-9.75 30,-2.08 4.98,-8.3 -30.3,1.05 1.8,-4.65 14.3,-0.0549 2.62,-3.13 20.8,0.387 4.4,-5.56 -23.1,0.348 -3.29,-1.58 z"
         id="path22" />
      <path
         d="m 135,-3.01 -0.438,5.81 8.03,14.2 -124,81.4 -4.83,-0.984 -2.93,1.76 22.6,11.2 76.4,-4.98 4.54,-2.15 13.3,0.805 -0.23,1.82 9.77,-8.78 -2.64,-4.83 -5.46,-0.619 -31.5,-27 56.3,2.64 -8.18,-67.9 z m 0.354,40.5 4.05,14.1 -18.5,-2.56 z m -52.5,40 20.4,15.9 -44.6,-1.43 z"
         id="path23" />
      <path
         d="m 270,63.4 1.81,3.47 -64.5,48.7 -16.5,-11.4 32.1,-39.2 5.77,-1.75 4.32,-5.11 4.43,-0.696 8.73,-10.7 1.26,1.01 -11.1,14.1 -1.54,7.04 -21.4,26.9 37.5,-25.8 9.11,0.604 z"
         id="path24" />
    </g>
    <g
       transform="translate(0,-173)"
       clip-path="url(#clipPath37)"
       fill="#51bcdc"
       id="g34"
       inkscape:label="Lines">
      <g
         stroke-linecap="square"
         id="g27">
        <path
           d="m 36.5,219 v 5.67 h 107 l 30.4,30.4 4.01,-4.01 -32.1,-32.1 h -107 z"
           color="#000000"
           id="path25" />
        <path
           d="m 254,222 -30.1,17.4 h -176 v 1 h 177 L 255,223 h 256 v -1 h -0.5 z"
           id="path26" />
        <path
           d="m 46.2,227 v 1 h 235 l 62.3,36 h 239 v -1 h -239 l -62.3,-36 z"
           id="path27" />
      </g>
      <path
         d="m 289,277 v 1 h 1 v -1 z m 2,0 v 1 h 1 v -1 z m 2,0 v 1 h 1 v -1 z m 2,0 v 1 h 1 v -1 z m 2,0 v 1 h 1 v -1 z m 2,0 v 1 h 1 v -1 z m 2,0 v 1 h 1 v -1 z m 2,0 v 1 h 1 v -1 z m 2,0 v 1 h 1 v -1 z m 2,0 v 1 h 1 v -1 z m 2,0 v 1 h 1 v -1 z m 2,0 v 1 h 1 v -1 z m 2,0 v 1 h 1 v -1 z m 2,0 v 1 h 1 v -1 z m 2,0 v 1 h 1 v -1 z m 2,0 v 1 h 1 v -1 z m 2,0 v 1 h 1 v -1 z m 2,0 v 1 h 1 v -1 z m 2,0 v 1 h 1 v -1 z m 2,0 v 1 h 1 v -1 z m 2,0 v 1 h 1 v -1 z m 2,0 v 1 h 1 v -1 z m 2,0 v 1 h 1 v -1 z m 2,0 v 1 h 1 v -1 z m 2,0 v 1 h 1 v -1 z m 2,0 v 1 h 1 v -1 z m 2,0 v 1 h 1 v -1 z m 2,0 v 1 h 1 v -1 z m 2,0 v 1 h 1 v -1 z m 2,0 v 1 h 1 v -1 z m 2,0 v 1 h 1 v -1 z m 2,0 v 1 h 1 v -1 z m 2,0 v 1 h 1 v -1 z m 2,0 v 1 h 1 v -1 z m 2,0 v 1 h 1 v -1 z m 2,0 v 1 h 1 v -1 z m 2,0 v 1 h 1 v -1 z m 2,0 v 1 h 1 v -1 z m 2,0 v 1 h 1 v -1 z m 2,0 v 1 h 1 v -1 z m 2,0 v 1 h 1 v -1 z m 2,0 v 1 h 1 v -1 z m 2,0 v 1 h 1 v -1 z m 2,0 v 1 h 1 v -1 z m 2,0 v 1 h 1 v -1 z m 2,0 v 1 h 1 v -1 z m 2,0 v 1 h 1 v -1 z m 2,0 v 1 h 1 v -1 z m 2,0 v 1 h 1 v -1 z m 2,0 v 1 h 1 v -1 z m 2,0 v 1 h 1 v -1 z m 2,0 v 1 h 1 v -1 z m 2,0 v 1 h 1 v -1 z m 2,0 v 1 h 1 v -1 z m 2,0 v 1 h 1 v -1 z m 2,0 v 1 h 1 v -1 z m 2,0 v 1 h 1 v -1 z m 2,0 v 1 h 1 v -1 z m 2,0 v 1 h 1 v -1 z m 2,0 v 1 h 1 v -1 z m 2,0 v 1 h 1 v -1 z m 2,0 v 1 h 1 v -1 z m 2,0 v 1 h 1 v -1 z m 2,0 v 1 h 1 v -1 z m 2,0 v 1 h 1 v -1 z m 2,0 v 1 h 1 v -1 z m 2,0 v 1 h 1 v -1 z m 2,0 v 1 h 1 v -1 z m 2,0 v 1 h 1 v -1 z m 2,0 v 1 h 1 v -1 z m 2,0 v 1 h 1 v -1 z m 2,0 v 1 h 1 v -1 z m 2,0 v 1 h 1 v -1 z m 2,0 v 1 h 1 v -1 z m 2,0 v 1 h 1 v -1 z m 2,0 v 1 h 1 v -1 z m 2,0 v 1 h 1 v -1 z m 2,0 v 1 h 1 v -1 z m 2,0 v 1 h 1 v -1 z m 2,0 v 1 h 1 v -1 z m 2,0 v 1 h 1 v -1 z m 2,0 v 1 h 1 v -1 z m 2,0 v 1 h 1 v -1 z m 2,0 v 1 h 1 v -1 z m 2,0 v 1 h 1 v -1 z m 2,0 v 1 h 1 v -1 z m 2,0 v 1 h 1 v -1 z m 2,0 v 1 h 1 v -1 z m 2,0 v 1 h 1 v -1 z m 2,0 v 1 h 1 v -1 z m 2,0 v 1 h 1 v -1 z m 2,0 v 1 h 1 v -1 z m 2,0 v 1 h 1 v -1 z m 2,0 v 1 h 1 v -1 z m 2,0 v 1 h 1 v -1 z m 2,0 v 1 h 1 v -1 z m 2,0 v 1 h 1 v -1 z m 2,0 v 1 h 1 v -1 z m 2,0 v 1 h 1 v -1 z m 2,0 v 1 h 1 v -1 z m 2,0 v 1 h 1 v -1 z m 2,0 v 1 h 1 v -1 z m 2,0 v 1 h 1 v -1 z m 2,0 v 1 h 1 v -1 z m 2,0 v 1 h 1 v -1 z m 2,0 v 1 h 1 v -1 z m 2,0 v 1 h 1 v -1 z m 2,0 v 1 h 0.771 v -1 z m -215,0.525 -0.867,0.5 0.5,0.867 0.867,-0.5 z m -1.73,1 -0.865,0.5 0.5,0.867 0.865,-0.5 z m -1.73,1 -0.865,0.5 0.5,0.867 0.865,-0.5 z m -1.73,1 -0.865,0.5 0.5,0.867 0.865,-0.5 z m -1.73,1 -0.865,0.5 0.5,0.867 0.865,-0.5 z m -1.73,1 -0.867,0.5 0.5,0.867 0.867,-0.5 z m -1.73,1 -0.867,0.5 0.5,0.867 0.867,-0.5 z m -1.73,1 -0.865,0.5 0.5,0.867 0.865,-0.5 z m -1.73,1 -0.865,0.5 0.5,0.867 0.865,-0.5 z m -1.73,1 -0.865,0.5 0.5,0.867 0.865,-0.5 z m -1.73,1 -0.867,0.5 0.5,0.867 0.867,-0.5 z m -1.73,1 -0.867,0.5 0.5,0.867 0.867,-0.5 z m -1.73,1 -0.865,0.5 0.5,0.867 0.865,-0.5 z m -1.73,1 -0.865,0.5 0.5,0.867 0.865,-0.5 z m -1.73,1 -0.865,0.5 0.5,0.867 0.865,-0.5 z m -1.73,1 -0.867,0.5 0.5,0.867 0.867,-0.5 z m -1.73,1 -0.867,0.5 0.5,0.867 0.867,-0.5 z m -1.73,1 -0.865,0.5 0.5,0.867 0.865,-0.5 z m -1.73,1 -0.865,0.5 0.5,0.867 0.865,-0.5 z m -1.73,1 -0.865,0.5 0.5,0.867 0.865,-0.5 z m -1.73,1 -0.867,0.5 0.5,0.867 0.867,-0.5 z m -18.5,0.834 v 1 h 1 v -1 z m 2,0 v 1 h 1 v -1 z m 2,0 v 1 h 1 v -1 z m 2,0 v 1 h 1 v -1 z m 2,0 v 1 h 1 v -1 z m 2,0 v 1 h 1 v -1 z m 2,0 v 1 h 1 v -1 z m 2,0 v 1 h 1 v -1 z m 2,0 v 1 h 1 v -1 z"
         stroke-dasharray="1, 1"
         id="path28" />
      <path
         d="m 58.1,270 -0.723,0.721 0.707,0.707 0.43,-0.428 h 1.98 v -1 z m 3.39,0 v 1 h 3 v -1 z m 4,0 v 1 h 3 v -1 z m 4,0 v 1 h 3 v -1 z m 4,0 v 1 h 3 v -1 z m 4,0 v 1 h 3 v -1 z m 4,0 v 1 h 3 v -1 z m 4,0 v 1 h 3 v -1 z m 4,0 v 1 h 3 v -1 z m 4,0 v 1 h 3 v -1 z m 4,0 v 1 h 3 v -1 z m 4,0 v 1 h 3 v -1 z m 4,0 v 1 h 3 v -1 z m 4,0 v 1 h 3 v -1 z m 4,0 v 1 h 3 v -1 z m 4,0 v 1 h 3 v -1 z m 4,0 v 1 h 3 v -1 z m 4,0 v 1 h 3 v -1 z m 4,0 v 1 h 3 v -1 z m 4,0 v 1 h 3 v -1 z m 4,0 v 1 h 3 v -1 z m 4,0 v 1 h 3 v -1 z m 4,0 v 1 h 3 v -1 z m 4,0 v 1 h 3 v -1 z m 4,0 v 1 h 3 v -1 z m 4,0 v 1 h 3 v -1 z m 4,0 v 1 h 3 v -1 z m 4,0 v 1 h 3 v -1 z m 4,0 v 1 h 3 v -1 z m 4,0 v 1 h 3 v -1 z m 4,0 v 1 h 3 v -1 z m 4,0 v 1 h 3 v -1 z m 4,0 v 1 h 3 v -1 z m 4,0 v 1 h 3 v -1 z m 4,0 v 1 h 3 v -1 z m 4,0 v 1 h 3 v -1 z m 4,0 v 1 h 3 v -1 z m 4,0 v 1 h 3 v -1 z m 4,0 v 1 h 3 v -1 z m 4,0 v 1 h 3 v -1 z m 4,0 v 1 h 3 v -1 z m 4,0 v 1 h 3 v -1 z m 4,0 v 1 h 3 v -1 z m 4,0 v 1 h 3 v -1 z m 4,0 v 1 h 3 v -1 z m 4,0 v 1 h 3 v -1 z m 4,0 v 1 h 3 v -1 z m 4,0 v 1 h 3 v -1 z m 4,0 v 1 h 3 v -1 z m 4,0 v 1 h 3 v -1 z m 4,0 v 1 h 3 v -1 z m 4,0 v 1 h 3 v -1 z m 4,0 v 1 h 3 v -1 z m 4,0 v 1 h 3 v -1 z m 4,0 v 1 h 3 v -1 z m 4,0 v 1 h 3 v -1 z m 4,0 v 1 h 3 v -1 z m 4,0 v 1 h 3 v -1 z m 4,0 v 1 h 3 v -1 z m 4,0 v 1 h 3 v -1 z m 4,0 v 1 h 3 v -1 z m 4,0 v 1 h 3 v -1 z m 4,0 v 1 h 3 v -1 z m 4,0 v 1 h 3 v -1 z m 4,0 v 1 h 3 v -1 z m 4,0 v 1 h 3 v -1 z m 4,0 v 1 h 3 v -1 z m 4,0 v 1 h 3 v -1 z m 4,0 v 1 h 3 v -1 z m 4,0 v 1 h 3 v -1 z m 4,0 v 1 h 3 v -1 z m 4,0 v 1 h 3 v -1 z m 4,0 v 1 h 3 v -1 z m 4,0 v 1 h 3 v -1 z m 4,0 v 1 h 3 v -1 z m 4,0 v 1 h 3 v -1 z m 4,0 v 1 h 3 v -1 z m 4,0 v 1 h 3 v -1 z m 4,0 v 1 h 3 v -1 z m 4,0 v 1 h 3 v -1 z m 4,0 v 1 h 3 v -1 z m 4,0 v 1 h 3 v -1 z m 4,0 v 1 h 3 v -1 z m 4,0 v 1 h 3 v -1 z m 4,0 v 1 h 3 v -1 z m 4,0 v 1 h 3 v -1 z m 4,0 v 1 h 3 v -1 z m 4,0 v 1 h 3 v -1 z m 4,0 v 1 h 3 v -1 z m 4,0 v 1 h 3 v -1 z m 4,0 v 1 h 3 v -1 z m 4,0 v 1 h 3 v -1 z m 4,0 v 1 h 3 v -1 z m 4,0 v 1 h 3 v -1 z m 4,0 v 1 h 3 v -1 z m 4,0 v 1 h 3 v -1 z m 4,0 v 1 h 3 v -1 z m 4,0 v 1 h 3 v -1 z m 4,0 v 1 h 3 v -1 z m 4,0 v 1 h 3 v -1 z m 4,0 v 1 h 3 v -1 z m 4,0 v 1 h 3 v -1 z m 4,0 v 1 h 3 v -1 z m 4,0 v 1 h 3 v -1 z m 4,0 v 1 h 3 v -1 z m 4,0 v 1 h 3 v -1 z m 4,0 v 1 h 3 v -1 z m 4,0 v 1 h 3 v -1 z m 4,0 v 1 h 3 v -1 z m 4,0 v 1 h 3 v -1 z m 4,0 v 1 h 3 v -1 z m 4,0 v 1 h 3 v -1 z m 4,0 v 1 h 3 v -1 z m 4,0 v 1 h 3 v -1 z m 4,0 v 1 h 3 v -1 z m 4,0 v 1 h 3 v -1 z m 4,0 v 1 h 3 v -1 z m 4,0 v 1 h 3 v -1 z m 4,0 v 1 h 3 v -1 z m 4,0 v 1 h 3 v -1 z m 4,0 v 1 h 3 v -1 z m 4,0 v 1 h 3 v -1 z m 4,0 v 1 h 3 v -1 z m 4,0 v 1 h 3 v -1 z m 4,0 v 1 h 3 v -1 z m 4,0 v 1 h 3 v -1 z m 4,0 v 1 h 3 v -1 z m 4,0 v 1 h 3 v -1 z m 4,0 v 1 h 3 v -1 z m 4,0 v 1 h 3 v -1 z m 4,0 v 1 h 3 v -1 z m -521,1.43 -2.12,2.12 0.707,0.707 2.12,-2.12 z m -2.83,2.83 -2.12,2.12 0.707,0.707 2.12,-2.12 z m -2.83,2.83 -2.12,2.12 0.707,0.707 2.12,-2.12 z m -2.83,2.83 -2.12,2.12 0.707,0.707 2.12,-2.12 z m -2.83,2.83 -2.12,2.12 0.709,0.707 2.12,-2.12 z m -2.83,2.83 -2.12,2.12 0.707,0.707 2.12,-2.12 z m -2.83,2.83 -2.12,2.12 0.707,0.707 2.12,-2.12 z"
         stroke-dasharray="3, 1"
         id="path29" />
      <path
         d="m 490,233 -4.79,4.79 2.12,2.12 3.92,-3.92 h 2.22 v -3 z m 6.46,0 v 3 h 9 v -3 z m 12,0 v 3 h 9 v -3 z m 12,0 v 3 h 9 v -3 z m 12,0 v 3 h 9 v -3 z m -49.4,6.92 -6.36,6.36 2.12,2.12 6.36,-6.36 z m -8.49,8.48 -4.63,4.63 h -1.21 v 3 h 2.45 l 5.51,-5.51 z m -119,4.63 v 3 h 1.8 v -3 z m 4.8,0 v 3 h 9 v -3 z m 12,0 v 3 h 9 v -3 z m 12,0 v 3 h 9 v -3 z m 12,0 v 3 h 9 v -3 z m 12,0 v 3 h 9 v -3 z m 12,0 v 3 h 9 v -3 z m 12,0 v 3 h 9 v -3 z m 12,0 v 3 h 9 v -3 z m 12,0 v 3 h 9 v -3 z"
         stroke-dasharray="9, 3"
         id="path30" />
      <path
         d="m 34.1,249 v 3 h 6 v -3 z m 9,0 v 3 h 1.5 v -3 z m 4.5,0 v 3 h 6 v -3 z m 9,0 v 3 h 1.5 v -3 z m 4.5,0 v 3 h 6 v -3 z m 9,0 v 3 h 1.5 v -3 z m 4.5,0 v 3 h 6 v -3 z m 9,0 v 3 h 1.5 v -3 z m 4.5,0 v 3 h 6 v -3 z m 9,0 v 3 h 1.5 v -3 z m 4.5,0 v 3 h 6 v -3 z m 9,0 v 3 h 1.5 v -3 z m 4.5,0 v 3 h 6 v -3 z m 9,0 v 3 h 1.5 v -3 z m 4.5,0 v 3 h 6 v -3 z m 9,0 v 3 h 1.5 v -3 z m 4.5,0 v 3 h 6 v -3 z m 9,0 v 3 h 1.5 v -3 z m 4.5,0 v 3 h 5.64 v -3 z"
         stroke-dasharray="6, 3, 1.5, 3"
         id="path31" />
      <path
         d="m 24.1,257 v 3 h 6 v -3 z m 9,0 v 3 h 1.5 v -3 z m 4.5,0 v 3 h 6 v -3 z m 9,0 v 3 h 1.5 v -3 z m 4.5,0 v 3 h 6 v -3 z m 9,0 v 3 h 1.5 v -3 z m 4.5,0 v 3 h 6 v -3 z m 9,0 v 3 h 1.5 v -3 z m 4.5,0 v 3 h 6 v -3 z m 9,0 v 3 h 1.5 v -3 z m 4.5,0 v 3 h 6 v -3 z m 9,0 v 3 h 1.5 v -3 z m 4.5,0 v 3 h 6 v -3 z m 9,0 v 3 h 1.5 v -3 z m 4.5,0 v 3 h 6 v -3 z m 9,0 v 3 h 1.5 v -3 z m 4.5,0 v 3 h 6 v -3 z m 9,0 v 3 h 1.5 v -3 z m 4.5,0 v 3 h 6 v -3 z m 9,0 v 3 h 1.5 v -3 z m 4.5,0 v 3 h 6 v -3 z m 9,0 v 3 h 1.5 v -3 z m 4.5,0 v 3 h 6 v -3 z m 9,0 v 3 h 1.5 v -3 z m 4.5,0 v 3 h 6 v -3 z m 9,0 v 3 h 1.5 v -3 z m 4.5,0 v 3 h 6 v -3 z m 9,0 v 3 h 1.5 v -3 z m 4.5,0 v 3 h 6 v -3 z m 9,0 v 3 h 1.5 v -3 z m 4.5,0 v 3 h 6 v -3 z m 9,0 v 3 h 1.5 v -3 z m 4.5,0 v 3 h 6 v -3 z m 9,0 v 3 h 1.5 v -3 z m 4.5,0 v 3 h 6 v -3 z m 9,0 v 3 h 1.5 v -3 z m 4.5,0 v 3 h 6 v -3 z m 9,0 v 3 h 1.5 v -3 z m 4.5,0 v 3 h 6 v -3 z m 9,0 v 3 h 1.5 v -3 z m 4.5,0 v 3 h 6 v -3 z m 9,0 v 3 h 1.5 v -3 z m 4.5,0 v 3 h 6 v -3 z m 9,0 v 3 h 0.248 v -3 z"
         stroke-dasharray="6, 3, 1.5, 3"
         id="path32" />
      <path
         d="m 330,237 v 1 h 1.66 v -1 z m 2.66,0 v 1 h 3 v -1 z m 4,0 v 1 h 3 v -1 z m 4,0 v 1 h 3 v -1 z m 4,0 v 1 h 3 v -1 z m 4,0 v 1 h 3 v -1 z m 4,0 v 1 h 3 v -1 z m 4,0 v 1 h 3 v -1 z m 4,0 v 1 h 3 v -1 z m 4,0 v 1 h 3 v -1 z m 4,0 v 1 h 3 v -1 z m 4,0 v 1 h 3 v -1 z m 4,0 v 1 h 3 v -1 z m 4,0 v 1 h 3 v -1 z m 4,0 v 1 h 3 v -1 z m 4,0 v 1 h 3 v -1 z m 4,0 v 1 h 3 v -1 z m 4,0 v 1 h 3 v -1 z m 4,0 v 1 h 3 v -1 z m 4,0 v 1 h 3 v -1 z m 4,0 v 1 h 3 v -1 z m 4,0 v 1 h 3 v -1 z m 4,0 v 1 h 3 v -1 z m 4,0 v 1 h 3 v -1 z m 4,0 v 1 h 3 v -1 z m 4,0 v 1 h 3 v -1 z m 4,0 v 1 h 3 v -1 z m 4,0 v 1 h 3 v -1 z m 4,0 v 1 h 3 v -1 z m 4,0 v 1 h 3 v -1 z m 4,0 v 1 h 3 v -1 z m 4,0 v 1 h 3 v -1 z m 4,0 v 1 h 1.33 l 1.48,0.396 0.258,-0.965 -1.61,-0.432 z m 4.04,0.689 -0.26,0.967 2.9,0.775 0.258,-0.965 z m 3.86,1.04 -0.26,0.967 2.9,0.775 0.26,-0.965 z m 3.86,1.04 -0.258,0.967 2.9,0.775 0.26,-0.965 z m 3.86,1.04 -0.258,0.967 2.9,0.775 0.26,-0.965 z m 3.87,1.04 -0.26,0.967 2.9,0.775 0.258,-0.965 z m 3.86,1.04 -0.26,0.967 2.9,0.775 0.258,-0.965 z m 3.86,1.04 -0.26,0.967 2.9,0.777 0.26,-0.967 z m 3.86,1.04 -0.258,0.967 2.9,0.777 0.26,-0.967 z m 3.86,1.04 -0.258,0.965 2.9,0.777 0.258,-0.967 z"
         stroke-dasharray="3, 1"
         id="path33" />
      <path
         d="m 314,287 -1.48,0.852 0.5,0.865 1.48,-0.852 z m -2.34,1.35 -2.6,1.5 0.5,0.865 2.6,-1.5 z m -3.46,2 -2.6,1.5 0.5,0.865 2.6,-1.5 z m -3.46,2 -2.6,1.5 0.5,0.865 2.6,-1.5 z m -3.46,2 -2.6,1.5 0.5,0.865 2.6,-1.5 z m -3.46,2 -2.6,1.5 0.5,0.865 2.6,-1.5 z m -3.46,2 -2.6,1.5 0.5,0.865 2.6,-1.5 z m -3.46,2 -2.6,1.5 0.5,0.865 2.6,-1.5 z m -3.46,2 -2.6,1.5 0.5,0.865 2.6,-1.5 z m -3.46,2 -2.6,1.5 0.5,0.865 2.6,-1.5 z m -3.46,2 -2.6,1.5 0.5,0.865 2.6,-1.5 z m -3.46,2 -2.6,1.5 0.5,0.865 2.6,-1.5 z m -3.46,2 -2.6,1.5 0.5,0.865 2.6,-1.5 z"
         stroke-dasharray="3, 1"
         id="path34" />
    </g>
  </g>
</svg>
